<svg xmlns="http://www.w3.org/2000/svg" id="Layer_1" viewBox="0 0 597.85 385.26"><defs><style>.cls-1{fill:#fff;}.cls-2{fill:#d06706;}</style></defs><rect class="cls-1" width="597.85" height="385.26"/><g><g><path d="m227.45,189.28c0,.46-.06.92-.06,1.38h-25.84c.68,6.49,5.59,10.74,12.09,10.74,4.68,0,8.21-2.18,9.87-5.23l2.51,1.49c-2.34,3.91-6.79,6.49-12.43,6.49-8.78,0-15-6.32-15-14.99s6.05-14.99,14.77-14.99,14.09,7.24,14.09,15.11Zm-25.9-1.44h22.93c-.63-7.01-5.53-10.92-11.12-10.92-6.5,0-11.24,4.54-11.81,10.92Z"/><path d="m252.65,203.53l-9.64-12.52-9.64,12.52h-3.48l11.41-14.76-10.72-13.96h3.48l8.96,11.66,9.01-11.66h3.42l-10.67,13.9,11.35,14.82h-3.48Z"/><path d="m258.19,189.17c0-8.5,6.67-14.99,15-14.99s14.94,6.49,14.94,14.99-6.67,14.99-14.94,14.99-15-6.49-15-14.99Zm27.04,0c0-6.84-5.25-12.24-12.03-12.24s-12.09,5.4-12.09,12.24,5.3,12.24,12.09,12.24,12.03-5.4,12.03-12.24Z"/><path d="m300.51,177.62v18.67c0,5.06,2.68,5.17,8.5,4.65v2.58c-7.47,1.15-11.41-.69-11.41-7.24v-18.67h-6.27v-2.81h6.27v-7.18l2.91-.86v8.04h8.5v2.81h-8.5Z"/><path d="m314.99,165.56c0-1.21,1.03-2.24,2.28-2.24s2.28,1.03,2.28,2.24-1.03,2.3-2.28,2.3-2.28-1.03-2.28-2.3Zm.86,9.25h2.85v28.72h-2.85v-28.72Z"/><path d="m325.54,189.17c0-8.5,6.39-14.99,15-14.99,5.59,0,10.38,2.87,12.43,7.35l-2.34,1.38c-1.65-3.62-5.53-5.97-10.1-5.97-6.9,0-12.09,5.4-12.09,12.24s5.19,12.24,12.09,12.24c4.62,0,8.38-2.41,10.27-5.97l2.4,1.44c-2.28,4.42-7.07,7.3-12.66,7.3-8.61,0-15-6.49-15-14.99Z"/><path d="m373.85,165.56c0-1.21,1.03-2.24,2.28-2.24s2.28,1.03,2.28,2.24-1.03,2.3-2.28,2.3-2.28-1.03-2.28-2.3Zm.86,9.25h2.85v28.72h-2.85v-28.72Z"/><path d="m410.47,185.66v17.87h-2.91v-17.87c0-5.29-3.02-8.73-8.38-8.73s-9.98,3.68-9.98,11.43v15.17h-2.85v-28.72h2.85v5.46c2.17-4.25,5.82-6.09,10.21-6.09,6.79,0,11.07,4.54,11.07,11.49Z"/><path d="m446.51,163.32v40.21h-2.85v-6.66c-2.34,4.42-6.73,7.3-12.26,7.3-8.16,0-14.77-6.49-14.77-14.99s6.62-14.99,14.77-14.99c5.53,0,9.92,2.87,12.26,7.3v-18.15h2.85Zm-2.85,25.85c0-6.84-5.3-12.24-12.09-12.24s-12.09,5.4-12.09,12.24,5.3,12.24,12.09,12.24,12.09-5.4,12.09-12.24Z"/><path d="m454.44,165.56c0-1.21,1.03-2.24,2.28-2.24s2.28,1.03,2.28,2.24-1.03,2.3-2.28,2.3-2.28-1.03-2.28-2.3Zm.86,9.25h2.85v28.72h-2.85v-28.72Z"/><path d="m494.93,174.81v28.72h-2.91v-6.49c-2.4,4.31-6.79,7.12-12.26,7.12-8.1,0-14.77-6.49-14.77-14.99s6.67-14.99,14.77-14.99c5.48,0,9.87,2.81,12.26,7.12v-6.49h2.91Zm-2.91,14.36c0-6.84-5.25-12.24-12.04-12.24s-12.09,5.4-12.09,12.24,5.3,12.24,12.09,12.24,12.04-5.4,12.04-12.24Z"/></g><g><path class="cls-2" d="m205.86,224.69l-.88-2.33h-4.51l-.88,2.33h-1l3.65-9.5h.98l3.65,9.5h-1Zm-5.05-3.23h3.83l-1.92-5.08-1.92,5.08Z"/><path class="cls-2" d="m217.82,223.93c-.65.62-1.5.92-2.55.92s-1.9-.31-2.55-.92c-.65-.62-.98-1.44-.98-2.47v-6.27h.95v6.27c0,.76.23,1.36.68,1.8.45.44,1.09.67,1.9.67s1.45-.22,1.9-.67c.45-.44.68-1.04.68-1.8v-6.27h.95v6.27c0,1.03-.33,1.85-.98,2.47Z"/><path class="cls-2" d="m230.87,215.19v.89h-2.92v8.6h-.95v-8.6h-2.92v-.89h6.78Z"/><path class="cls-2" d="m242.41,215.19h.95v9.5h-.95v-4.44h-5.16v4.44h-.95v-9.5h.95v4.16h5.16v-4.16Z"/><path class="cls-2" d="m250.55,223.79h4.61v.9h-5.56v-9.5h5.49v.89h-4.54v3.37h4.21v.89h-4.21v3.45Z"/><path class="cls-2" d="m266.96,215.19h.95v9.5h-.81l-5.29-7.73v7.73h-.95v-9.5h.83l5.28,7.71v-7.71Z"/><path class="cls-2" d="m280.12,215.19v.89h-2.92v8.6h-.95v-8.6h-2.92v-.89h6.78Z"/><path class="cls-2" d="m285.55,215.19h.95v9.5h-.95v-9.5Z"/><path class="cls-2" d="m297.17,224.85c-1.44,0-2.63-.47-3.57-1.42-.94-.95-1.41-2.11-1.41-3.49s.47-2.54,1.41-3.49c.94-.95,2.13-1.42,3.57-1.42.88,0,1.68.21,2.42.63s1.3.99,1.7,1.7l-.84.49c-.3-.58-.74-1.04-1.33-1.38-.59-.34-1.23-.52-1.94-.52-1.18,0-2.15.38-2.9,1.15s-1.13,1.71-1.13,2.84.38,2.07,1.13,2.84,1.72,1.15,2.9,1.15c.71,0,1.35-.17,1.94-.52.59-.34,1.03-.8,1.33-1.38l.84.48c-.39.71-.95,1.28-1.69,1.71-.74.43-1.54.64-2.42.64Z"/><path class="cls-2" d="m307.51,224.61c-.14.14-.32.22-.53.22s-.38-.07-.53-.22-.22-.32-.22-.53.07-.38.22-.53.32-.22.53-.22.38.07.53.22.22.32.22.53-.07.38-.22.53Z"/><path class="cls-2" d="m317.46,224.85c-1.44,0-2.63-.47-3.57-1.42-.94-.95-1.41-2.11-1.41-3.49s.47-2.54,1.41-3.49c.94-.95,2.13-1.42,3.57-1.42.88,0,1.68.21,2.42.63s1.3.99,1.7,1.7l-.84.49c-.3-.58-.74-1.04-1.33-1.38-.59-.34-1.23-.52-1.94-.52-1.18,0-2.15.38-2.9,1.15s-1.13,1.71-1.13,2.84.38,2.07,1.13,2.84,1.72,1.15,2.9,1.15c.71,0,1.35-.17,1.94-.52.59-.34,1.03-.8,1.33-1.38l.84.48c-.39.71-.95,1.28-1.69,1.71-.74.43-1.54.64-2.42.64Z"/><path class="cls-2" d="m333.14,223.93c-.65.62-1.5.92-2.55.92s-1.9-.31-2.55-.92c-.65-.62-.98-1.44-.98-2.47v-6.27h.95v6.27c0,.76.23,1.36.68,1.8.45.44,1.09.67,1.9.67s1.45-.22,1.9-.67c.45-.44.68-1.04.68-1.8v-6.27h.95v6.27c0,1.03-.33,1.85-.98,2.47Z"/><path class="cls-2" d="m346.05,224.69l-2.22-3.8h-2.67v3.8h-.95v-9.5h3.8c.79,0,1.46.28,2.01.83.56.56.83,1.23.83,2.01,0,.64-.19,1.21-.58,1.72-.38.5-.87.84-1.47,1.01l2.32,3.92h-1.08Zm-4.88-8.6v3.91h2.85c.52,0,.97-.19,1.34-.58s.56-.84.56-1.38-.19-1-.56-1.38-.82-.57-1.34-.57h-2.85Z"/><path class="cls-2" d="m358.89,224.69l-.88-2.33h-4.51l-.88,2.33h-1l3.65-9.5h.98l3.65,9.5h-1Zm-5.05-3.23h3.83l-1.91-5.08-1.92,5.08Z"/><path class="cls-2" d="m370.47,215.19v.89h-2.92v8.6h-.95v-8.6h-2.92v-.89h6.78Z"/><path class="cls-2" d="m376.85,223.79h4.61v.9h-5.56v-9.5h5.49v.89h-4.54v3.37h4.21v.89h-4.21v3.45Z"/><path class="cls-2" d="m390.82,215.19c1.29,0,2.36.46,3.21,1.38.85.92,1.27,2.04,1.27,3.37s-.42,2.45-1.27,3.37c-.85.92-1.92,1.38-3.21,1.38h-3.66v-9.5h3.66Zm0,8.6c1.04,0,1.89-.37,2.56-1.11s1-1.65,1-2.74-.33-2-1-2.74-1.52-1.11-2.56-1.11h-2.71v7.71h2.71Z"/><path class="cls-2" d="m401.32,224.61c-.14.14-.32.22-.53.22s-.38-.07-.53-.22-.22-.32-.22-.53.07-.38.22-.53.32-.22.53-.22.38.07.53.22.22.32.22.53-.07.38-.22.53Z"/><path class="cls-2" d="m413.62,215.19h.95v9.5h-.95v-4.44h-5.16v4.44h-.95v-9.5h.95v4.16h5.16v-4.16Z"/><path class="cls-2" d="m421.76,223.79h4.61v.9h-5.56v-9.5h5.49v.89h-4.54v3.37h4.21v.89h-4.21v3.45Z"/><path class="cls-2" d="m437.9,224.69l-2.22-3.8h-2.67v3.8h-.95v-9.5h3.8c.79,0,1.46.28,2.01.83.56.56.83,1.23.83,2.01,0,.64-.19,1.21-.58,1.72-.38.5-.87.84-1.47,1.01l2.32,3.92h-1.08Zm-4.88-8.6v3.91h2.85c.52,0,.97-.19,1.34-.58s.56-.84.56-1.38-.19-1-.56-1.38-.82-.57-1.34-.57h-2.85Z"/><path class="cls-2" d="m444.41,215.19h.95v9.5h-.95v-9.5Z"/><path class="cls-2" d="m457.57,215.19v.89h-2.92v8.6h-.95v-8.6h-2.92v-.89h6.78Z"/><path class="cls-2" d="m468.64,224.69l-.88-2.33h-4.51l-.88,2.33h-1l3.65-9.5h.98l3.65,9.5h-1Zm-5.05-3.23h3.83l-1.91-5.08-1.92,5.08Z"/><path class="cls-2" d="m483.67,220.17v.49c0,1.18-.42,2.17-1.26,2.98s-1.97,1.21-3.38,1.21-2.63-.47-3.57-1.42c-.94-.95-1.41-2.11-1.41-3.49s.47-2.54,1.41-3.49c.94-.95,2.13-1.42,3.57-1.42.88,0,1.68.21,2.41.64.73.43,1.3.99,1.7,1.7l-.84.49c-.3-.58-.74-1.04-1.33-1.38-.59-.34-1.23-.52-1.94-.52-1.19,0-2.15.38-2.9,1.15-.75.77-1.13,1.71-1.13,2.84s.38,2.07,1.13,2.84c.75.77,1.72,1.15,2.9,1.15,1.07,0,1.92-.27,2.56-.81.64-.54,1.01-1.22,1.1-2.06h-3.77v-.89h4.75Z"/><path class="cls-2" d="m490.32,223.79h4.61v.9h-5.56v-9.5h5.49v.89h-4.54v3.37h4.21v.89h-4.21v3.45Z"/></g><g><path class="cls-2" d="m157.56,234.1h-37.18c-.36,0-.64-.29-.64-.64v-6.45c0-.36.29-.64.64-.64h10.85v-3.65h-21.85c-.36,0-.64-.29-.64-.64v-21.85h-3.65v10.85c0,.36-.29.64-.64.64h-6.45c-.36,0-.64-.29-.64-.64v-37.18c0-.36.29-.64.64-.64h6.45c.36,0,.64.29.64.64v10.85h3.65v-21.85c0-.36.29-.64.64-.64h21.85v-3.65h-10.85c-.36,0-.64-.29-.64-.64v-6.45c0-.36.29-.64.64-.64h37.18c.36,0,.64.29.64.64v6.45c0,.36-.29.64-.64.64h-10.85v3.65h21.85c.36,0,.64.29.64.64v21.85h3.65v-10.85c0-.36.29-.64.64-.64h6.45c.36,0,.64.29.64.64v37.18c0,.36-.29.64-.64.64h-6.45c-.36,0-.64-.29-.64-.64v-10.85h-3.65v21.85c0,.36-.29.64-.64.64h-21.85v3.65h10.85c.36,0,.64.29.64.64v6.45c0,.36-.29.64-.64.64Zm-36.53-1.29h35.89v-5.16h-10.85c-.36,0-.64-.29-.64-.64v-4.94c0-.36.29-.64.64-.64h21.85v-21.85c0-.36.29-.64.64-.64h4.94c.36,0,.64.29.64.64v10.85h5.16v-35.89h-5.16v10.85c0,.36-.29.64-.64.64h-4.94c-.36,0-.64-.29-.64-.64v-21.85h-21.85c-.36,0-.64-.29-.64-.64v-4.94c0-.36.29-.64.64-.64h10.85v-5.16h-35.89v5.16h10.85c.36,0,.64.29.64.64v4.94c0,.36-.29.64-.64.64h-21.85v21.85c0,.36-.29.64-.64.64h-4.94c-.36,0-.64-.29-.64-.64v-10.85h-5.16v35.89h5.16v-10.85c0-.36.29-.64.64-.64h4.94c.36,0,.64.29.64.64v21.85h21.85c.36,0,.64.29.64.64v4.94c0,.36-.29.64-.64.64h-10.85v5.16Z"/><g><path class="cls-2" d="m138.97,210.61c-9.99,0-18.12-8.13-18.12-18.12s8.13-18.12,18.12-18.12,18.12,8.13,18.12,18.12-8.13,18.12-18.12,18.12Zm0-34.96c-9.28,0-16.83,7.55-16.83,16.83s7.55,16.83,16.83,16.83,16.83-7.55,16.83-16.83-7.55-16.83-16.83-16.83Z"/><g><path class="cls-2" d="m142.41,175.65s-.08,0-.12-.01c-.35-.07-.58-.41-.51-.76l1.27-6.48-4.07-3.79-4.07,3.79,1.27,6.48c.07.35-.16.69-.51.76-.35.08-.69-.16-.76-.51l-1.34-6.83c-.04-.22.03-.44.19-.6l4.78-4.44c.25-.23.63-.23.88,0l4.77,4.44c.16.15.24.38.19.6l-1.34,6.83c-.06.31-.33.52-.63.52Z"/><path class="cls-2" d="m139.93,175.73c-.26,0-.5-.16-.6-.41l-.37-.95-.37.95c-.13.33-.51.49-.83.37-.33-.13-.5-.5-.37-.83l.97-2.52c.1-.25.33-.41.6-.41h0c.27,0,.5.16.6.41l.96,2.52c.13.33-.04.71-.37.83-.08.03-.15.04-.23.04Z"/></g><g><path class="cls-2" d="m129.1,178.3c-.21,0-.41-.1-.54-.29l-3.85-5.8c-.12-.19-.14-.42-.05-.62l2.71-5.93c.14-.31.5-.45.81-.34l6.11,2.28c.21.08.36.26.41.48l1.38,6.82c.07.35-.15.69-.5.76-.34.07-.69-.16-.76-.5l-1.31-6.47-5.21-1.94-2.31,5.06,3.65,5.5c.2.3.12.7-.18.89-.11.07-.23.11-.36.11Z"/><path class="cls-2" d="m131.41,177.43c-.35,0-.64-.28-.64-.63l-.07-2.7c0-.27.15-.51.4-.61.25-.1.53-.04.71.15l1.85,1.96c.24.26.23.67-.03.91-.26.24-.67.23-.91-.03l-.7-.74.03,1.02c0,.36-.27.65-.63.66h-.02Z"/></g><g><path class="cls-2" d="m124.18,183.2c-.12,0-.25-.04-.36-.11l-5.77-3.88c-.19-.12-.29-.34-.28-.56l.24-6.52c.01-.34.28-.61.62-.62l6.52-.24c.27,0,.44.1.56.28l3.88,5.77c.2.3.12.7-.18.9-.29.2-.7.12-.9-.18l-3.68-5.48-5.56.2-.2,5.56,5.48,3.68c.29.2.37.6.18.9-.12.19-.33.28-.54.28Z"/><path class="cls-2" d="m125.98,181.51c-.25,0-.48-.14-.59-.38l-1.09-2.47c-.11-.24-.06-.53.13-.72.19-.19.48-.24.72-.13l2.46,1.1c.32.15.47.53.33.85-.14.32-.53.47-.85.33l-.93-.42.41.93c.14.32,0,.71-.33.85-.08.04-.17.06-.26.06Z"/></g><g><path class="cls-2" d="m121.51,189.62s-.09,0-.13-.01l-6.82-1.38c-.22-.04-.4-.2-.48-.41l-2.28-6.11c-.12-.32.03-.67.34-.81l5.93-2.71c.2-.09.44-.07.62.05l5.8,3.85c.3.2.38.6.18.89-.2.3-.6.37-.89.18l-5.5-3.65-5.06,2.31,1.94,5.21,6.47,1.31c.35.07.58.41.5.76-.06.31-.33.52-.63.52Z"/><path class="cls-2" d="m122.52,187.37c-.16,0-.32-.06-.44-.18l-1.95-1.86c-.19-.18-.25-.47-.15-.72s.34-.42.61-.4l2.69.07c.36.01.64.31.63.66-.01.35-.3.63-.64.63h-.02l-1.02-.03.74.7c.26.25.27.65.02.91-.13.13-.3.2-.47.2Z"/></g><g><path class="cls-2" d="m114.66,197.9c-.18,0-.35-.07-.47-.21l-4.44-4.78c-.23-.25-.23-.63,0-.88l4.44-4.78c.15-.16.38-.24.6-.19l6.83,1.34c.35.07.58.41.51.76-.07.35-.41.58-.76.51l-6.48-1.27-3.79,4.07,3.79,4.07,6.48-1.27c.34-.07.69.16.76.51.07.35-.16.69-.51.76l-6.83,1.34s-.08.01-.12.01Z"/><path class="cls-2" d="m121.57,194.1c-.08,0-.16-.01-.23-.04l-2.52-.97c-.25-.1-.41-.34-.41-.6s.16-.5.41-.6l2.52-.96c.33-.12.71.04.83.37s-.04.71-.37.83l-.95.37.95.37c.33.13.5.5.37.83-.1.26-.34.41-.6.41Z"/></g><g><path class="cls-2" d="m118.34,206.84c-.09,0-.18-.02-.27-.06l-5.93-2.71c-.31-.14-.45-.49-.34-.81l2.28-6.11c.08-.21.26-.36.48-.41l6.82-1.38c.34-.07.69.15.76.5.07.35-.15.69-.5.76l-6.47,1.31-1.94,5.21,5.06,2.31,5.5-3.65c.29-.19.7-.12.89.18.2.3.12.7-.18.89l-5.8,3.85c-.11.07-.23.11-.36.11Z"/><path class="cls-2" d="m120.57,200.75c-.26,0-.5-.16-.6-.4-.1-.25-.04-.53.15-.71l1.96-1.85c.26-.24.66-.23.91.03.24.26.23.67-.03.91l-.74.7,1.02-.03c.4,0,.65.27.66.63,0,.36-.27.65-.63.66l-2.7.07h-.02Z"/></g><g><path class="cls-2" d="m125.16,213.69h-.02l-6.52-.24c-.34-.01-.61-.28-.62-.62l-.24-6.52c0-.22.1-.43.28-.56l5.77-3.88c.29-.2.7-.12.9.18.2.3.12.7-.18.9l-5.48,3.68.2,5.56,5.56.2,3.68-5.48c.2-.3.6-.37.9-.18.29.2.37.6.18.9l-3.88,5.77c-.12.18-.32.28-.54.28Z"/><path class="cls-2" d="m124.89,207.21c-.17,0-.33-.07-.46-.19-.19-.19-.24-.47-.13-.72l1.1-2.46c.14-.33.53-.47.85-.33.32.15.47.53.33.85l-.42.93.93-.41c.32-.14.7,0,.85.33.14.32,0,.71-.33.85l-2.47,1.09c-.08.04-.17.06-.26.06Z"/></g><g><path class="cls-2" d="m127.97,219.69c-.25,0-.48-.14-.59-.38l-2.71-5.93c-.09-.2-.07-.44.05-.62l3.85-5.8c.2-.3.6-.37.89-.18.3.2.38.6.18.89l-3.65,5.5,2.31,5.06,5.21-1.94,1.31-6.47c.07-.35.42-.57.76-.5.35.07.58.41.5.76l-1.38,6.82c-.04.22-.2.4-.41.48l-6.11,2.28c-.07.03-.15.04-.23.04Z"/><path class="cls-2" d="m131.35,211.53c-.08,0-.17-.02-.25-.05-.25-.1-.4-.35-.4-.61l.07-2.69c.01-.35.3-.63.64-.63h.02c.36.01.64.31.63.66l-.03,1.02.7-.74c.25-.26.66-.27.91-.02.26.25.27.65.02.91l-1.86,1.95c-.12.13-.29.2-.47.2Z"/></g><g><path class="cls-2" d="m138.97,221.88c-.16,0-.31-.06-.44-.17l-4.77-4.44c-.16-.15-.24-.38-.19-.6l1.34-6.83c.07-.35.41-.58.76-.51.35.07.58.41.51.76l-1.27,6.48,4.07,3.79,4.07-3.79-1.27-6.48c-.07-.35.16-.69.51-.76.34-.07.69.16.76.51l1.34,6.83c.04.22-.03.44-.19.6l-4.78,4.44c-.12.11-.28.17-.44.17Z"/><path class="cls-2" d="m138.97,213.04h0c-.27,0-.5-.16-.6-.41l-.96-2.52c-.13-.33.04-.71.37-.83.33-.13.71.04.83.37l.37.95.37-.95c.13-.33.5-.5.83-.37.33.13.5.5.37.83l-.97,2.52c-.1.25-.33.41-.6.41Z"/></g><g><path class="cls-2" d="m149.97,219.69c-.08,0-.15-.01-.23-.04l-6.11-2.28c-.21-.08-.36-.26-.41-.48l-1.38-6.82c-.07-.35.15-.69.5-.76.35-.07.69.15.76.5l1.31,6.47,5.21,1.94,2.31-5.06-3.65-5.5c-.2-.3-.12-.7.18-.89.29-.19.69-.12.89.18l3.85,5.8c.12.19.14.42.05.62l-2.71,5.93c-.11.24-.34.38-.59.38Z"/><path class="cls-2" d="m146.59,211.53c-.17,0-.34-.07-.47-.2l-1.85-1.96c-.24-.26-.23-.67.03-.91.26-.24.66-.23.91.03l.7.74-.03-1.02c0-.36.27-.65.63-.66.41,0,.65.27.66.63l.07,2.7c0,.27-.15.51-.4.61-.08.03-.16.05-.25.05Z"/></g><g><path class="cls-2" d="m152.78,213.69c-.21,0-.42-.11-.54-.28l-3.88-5.77c-.2-.3-.12-.7.18-.9.29-.2.7-.12.9.18l3.68,5.48,5.56-.2.2-5.56-5.48-3.68c-.29-.2-.37-.6-.18-.9.2-.3.6-.37.9-.18l5.77,3.88c.19.12.29.34.28.56l-.24,6.52c-.01.34-.28.61-.62.62l-6.52.24h-.02Z"/><path class="cls-2" d="m153.05,207.21c-.09,0-.18-.02-.26-.06l-2.46-1.1c-.32-.15-.47-.53-.33-.85.15-.33.53-.47.85-.33l.93.42-.41-.93c-.14-.32,0-.71.33-.85.32-.14.7,0,.85.33l1.09,2.47c.11.24.06.53-.13.72-.12.12-.29.19-.46.19Z"/></g><g><path class="cls-2" d="m159.6,206.84c-.12,0-.25-.04-.36-.11l-5.8-3.85c-.3-.2-.38-.6-.18-.89.2-.3.6-.37.89-.18l5.5,3.65,5.06-2.31-1.94-5.21-6.47-1.31c-.35-.07-.58-.41-.5-.76.07-.35.42-.57.76-.5l6.82,1.38c.22.04.4.2.48.41l2.28,6.11c.12.32-.03.67-.34.81l-5.93,2.71c-.09.04-.18.06-.27.06Z"/><path class="cls-2" d="m157.37,200.75h-.02l-2.69-.07c-.36-.01-.64-.31-.63-.66.01-.35.3-.63.64-.63h.02l1.02.03-.74-.7c-.26-.25-.27-.65-.02-.91.25-.26.65-.27.91-.02l1.95,1.86c.19.18.25.47.15.72-.1.24-.34.4-.6.4Z"/></g><g><path class="cls-2" d="m163.27,197.9s-.08,0-.12-.01l-6.83-1.34c-.35-.07-.58-.41-.51-.76.07-.35.41-.59.76-.51l6.48,1.27,3.79-4.07-3.79-4.07-6.48,1.27c-.34.07-.69-.16-.76-.51-.07-.35.16-.69.51-.76l6.83-1.34c.21-.04.44.03.6.19l4.44,4.78c.23.25.23.63,0,.88l-4.44,4.78c-.12.13-.29.21-.47.21Z"/><path class="cls-2" d="m156.36,194.09c-.26,0-.5-.16-.6-.41-.13-.33.04-.71.37-.83l.95-.37-.95-.37c-.33-.13-.5-.5-.37-.83.13-.33.5-.5.83-.37l2.52.97c.25.1.41.34.41.6s-.16.5-.41.6l-2.52.96c-.08.03-.15.04-.23.04Z"/></g><g><path class="cls-2" d="m156.43,189.62c-.3,0-.57-.21-.63-.52-.07-.35.15-.69.5-.76l6.47-1.31,1.94-5.21-5.06-2.31-5.5,3.65c-.3.19-.7.12-.89-.18-.2-.3-.12-.7.18-.89l5.8-3.85c.19-.12.42-.14.62-.05l5.93,2.71c.31.14.45.49.34.81l-2.28,6.11c-.08.21-.26.36-.48.41l-6.82,1.38s-.09.01-.13.01Z"/><path class="cls-2" d="m155.41,187.36c-.17,0-.34-.07-.47-.2-.24-.26-.23-.67.03-.91l.74-.7-1.02.03c-.34.02-.65-.27-.66-.63,0-.36.27-.65.63-.66l2.7-.07c.25-.01.51.15.61.4.1.25.04.53-.15.71l-1.96,1.85c-.12.12-.28.18-.44.18Z"/></g><g><path class="cls-2" d="m153.76,183.2c-.21,0-.41-.1-.54-.28-.2-.3-.12-.7.18-.9l5.48-3.68-.2-5.56-5.56-.2-3.68,5.48c-.2.3-.6.37-.9.18-.29-.2-.37-.6-.18-.9l3.88-5.77c.12-.18.3-.29.56-.28l6.52.24c.34.01.61.28.62.62l.24,6.52c0,.22-.1.43-.28.56l-5.77,3.88c-.11.07-.24.11-.36.11Z"/><path class="cls-2" d="m151.95,181.51c-.09,0-.18-.02-.26-.06-.32-.15-.47-.53-.33-.85l.42-.93-.93.41c-.32.14-.71,0-.85-.33-.14-.32,0-.71.33-.85l2.47-1.09c.24-.11.53-.05.72.13.19.19.24.47.13.72l-1.1,2.46c-.11.24-.34.38-.59.38Z"/></g><g><path class="cls-2" d="m148.83,178.3c-.12,0-.25-.04-.36-.11-.3-.2-.38-.6-.18-.89l3.65-5.5-2.31-5.06-5.21,1.94-1.31,6.47c-.07.35-.41.58-.76.5-.35-.07-.58-.41-.5-.76l1.38-6.82c.04-.22.2-.4.41-.48l6.11-2.28c.32-.12.67.03.81.34l2.71,5.93c.09.2.07.44-.05.62l-3.85,5.8c-.12.19-.33.29-.54.29Z"/><path class="cls-2" d="m146.52,177.43h-.02c-.36-.01-.64-.31-.63-.66l.03-1.02-.7.74c-.25.26-.65.27-.91.02s-.27-.65-.02-.91l1.86-1.95c.18-.2.47-.25.72-.15.25.1.4.35.4.61l-.07,2.69c-.01.35-.3.63-.64.63Z"/></g></g><g><path class="cls-2" d="m138.97,206.84c-.16,0-.33-.06-.46-.19l-3.82-3.82h-5.42c-.36,0-.64-.29-.64-.64v-5.42l-3.83-3.83c-.25-.25-.25-.66,0-.91l3.83-3.83v-5.42c0-.36.29-.64.64-.64h5.42l3.82-3.82c.25-.25.66-.25.91,0l3.82,3.82h5.43c.36,0,.64.29.64.64v5.43l3.82,3.82c.25.25.25.66,0,.91l-3.82,3.82v5.43c0,.36-.29.64-.64.64h-5.43l-3.82,3.82c-.13.13-.29.19-.46.19Zm-3.37-4.92l3.37,3.37,3.43-3.43c.07-.13.18-.24.31-.3.19-.08.4-.1.57-.02h4.75v-4.74c-.11-.17-.13-.39-.05-.58.08-.19.24-.33.43-.38l3.36-3.36-3.43-3.43c-.13-.07-.24-.18-.3-.31-.08-.19-.1-.4-.02-.57v-4.75h-4.74c-.17.11-.39.13-.58.05-.19-.08-.33-.24-.38-.43l-3.36-3.36-3.43,3.43c-.07.14-.19.25-.33.31-.18.07-.38.08-.54,0h-4.75v4.86c.04.15.04.31-.02.44-.08.17-.2.32-.37.39l-3.37,3.37,3.43,3.43c.13.07.24.16.29.29.08.19.12.4.04.57v4.77h4.83c.14-.05.29-.05.42,0,.19.07.36.2.43.38Zm3.37-1.42c-1.1,0-2.13-.21-3.08-.62-1.94-.8-3.52-2.38-4.32-4.33-.41-.98-.61-2.02-.61-3.07s.21-2.09.61-3.07c.8-1.95,2.38-3.53,4.33-4.33,1.89-.81,4.25-.81,6.15,0,1.94.8,3.52,2.38,4.32,4.33.41.98.61,2.02.61,3.07s-.21,2.09-.61,3.07c-.8,1.95-2.38,3.53-4.33,4.33-.95.41-1.98.61-3.08.61Zm0-14.74c-.92,0-1.78.17-2.57.51-1.64.68-2.97,2-3.64,3.63-.34.83-.51,1.7-.51,2.58s.17,1.75.51,2.58c.67,1.63,2,2.96,3.63,3.63,1.6.68,3.58.68,5.15,0,0,0,0,0,0,0,1.63-.67,2.96-2,3.63-3.63.34-.83.51-1.7.51-2.58s-.17-1.75-.51-2.58c-.67-1.63-2-2.96-3.63-3.63-.8-.34-1.66-.51-2.58-.51Z"/><path class="cls-2" d="m142.95,202.74c-.25,0-.49-.15-.6-.4l-1.15-2.8c-.14-.33.02-.71.35-.84.33-.14.71.02.84.35l1.15,2.8c.14.33-.02.71-.35.84-.08.03-.16.05-.25.05Z"/><path class="cls-2" d="m136.14,186.32c-.25,0-.49-.15-.6-.4l-1.15-2.8c-.14-.33.02-.71.35-.84.33-.14.71.02.84.35l1.15,2.8c.14.33-.02.71-.35.84-.08.03-.16.05-.25.05Z"/><path class="cls-2" d="m134.99,202.74c-.08,0-.16-.02-.25-.05-.33-.13-.49-.51-.35-.84l1.15-2.8c.13-.33.51-.49.84-.35.33.13.49.51.35.84l-1.15,2.8c-.1.25-.34.4-.6.4Z"/><path class="cls-2" d="m141.79,186.32c-.08,0-.16-.02-.25-.05-.33-.13-.49-.51-.35-.84l1.15-2.8c.14-.33.51-.49.84-.35.33.13.49.51.35.84l-1.15,2.8c-.1.25-.34.4-.6.4Z"/><path class="cls-2" d="m129.36,197.11c-.25,0-.49-.15-.6-.4-.14-.33.02-.71.35-.84l2.8-1.15c.33-.13.71.02.84.35.14.33-.02.71-.35.84l-2.8,1.15c-.08.03-.16.05-.25.05Z"/><path class="cls-2" d="m145.78,190.3c-.25,0-.49-.15-.6-.4-.14-.33.02-.71.35-.84l2.8-1.15c.33-.14.71.02.84.35.14.33-.02.71-.35.84l-2.8,1.15c-.08.03-.16.05-.25.05Z"/><path class="cls-2" d="m132.16,190.3c-.08,0-.16-.02-.25-.05l-2.8-1.15c-.33-.13-.49-.51-.35-.84.13-.33.51-.49.84-.35l2.8,1.15c.33.13.49.51.35.84-.1.25-.34.4-.6.4Z"/><path class="cls-2" d="m148.58,197.11c-.08,0-.16-.02-.25-.05l-2.8-1.15c-.33-.13-.49-.51-.35-.84.13-.33.51-.49.84-.35l2.8,1.15c.33.13.49.51.35.84-.1.25-.34.4-.6.4Z"/></g><path class="cls-2" d="m138.97,193.59c-.61,0-1.11-.5-1.11-1.11s.5-1.11,1.11-1.11,1.11.5,1.11,1.11-.5,1.11-1.11,1.11Zm0-1.29c-.1,0-.18.08-.18.18,0,.2.36.2.36,0,0-.1-.08-.18-.18-.18Z"/></g></g></svg>